# AST/ASF file generated using VICON BodyLanguage
# -----------------------------------------------
:version 1.10
:name VICON
:units
  mass 1.0
  length 0.45
  angle deg
:documentation
   .ast/.asf automatically generated from VICON data using
   VICON BodyBuilder and BodyLanguage model FoxedUp or BRILLIANT.MOD
:root
   order TX TY TZ RX RY RZ
   axis XYZ
   position 0 0 0  
   orientation 0 0 0 
:bonedata
  begin
     id 1 
     name lhipjoint
     direction 0.645422 -0.672597 0.361999 
     length 2.39934 
     axis 0 0 0  XYZ
  end
  begin
     id 2 
     name lfemur
     direction 0.34202 -0.939693 0  
     length 6.58112  
     axis 0 0 20  XYZ
    dof rx ry rz
    limits (-160.0 20.0)
           (-70.0 70.0)
           (-60.0 70.0)
  end
  begin
     id 3 
     name ltibia
     direction 0.34202 -0.939693 0   
     length 7.02673   
     axis 0 0 20   XYZ
    dof rx
    limits (-10.0 170.0)
  end
  begin
     id 4 
     name lfoot
     direction 0.0835106 -0.229444 0.969733   
     length 2.08772   
     axis -90 7.62852e-016 20   XYZ
    dof rx rz
    limits (-45.0 90.0)
           (-70.0 20.0)
  end
  begin
     id 5 
     name ltoes
     direction 1.5358e-011 -4.21925e-011 1   
     length 1.04844   
     axis -90 7.62852e-016 20   XYZ
    dof rx
    limits (-90.0 20.0)
  end
  begin
     id 6 
     name rhipjoint
     direction -0.644959 -0.672941 0.362185   
     length 2.39812  
     axis 0 0 0  XYZ 
  end
  begin
     id 7 
     name rfemur
     direction -0.34202 -0.939693 0   
     length 6.67015   
     axis 0 0 -20   XYZ
    dof rx ry rz
    limits (-160.0 20.0)
           (-70.0 70.0)
           (-70.0 60.0)
  end
  begin
     id 8 
     name rtibia
     direction -0.34202 -0.939693 0   
     length 7.35735   
     axis 0 0 -20   XYZ
    dof rx
    limits (-10.0 170.0)
 end
 begin
     id 9 
     name rfoot
     direction -0.0670769 -0.184292 0.98058   
     length 2.25469  
     axis -90 -7.62852e-016 -20   XYZ
    dof rx rz
    limits (-45.0 90.0)
           (-20.0 70.0)
  end
  begin
     id 10 
     name rtoes
     direction -1.53575e-011 -4.21908e-011 1   
     length 1.13399   
     axis -90 -7.62852e-016 -20   XYZ
    dof rx
    limits (-90.0 20.0)
  end
  begin
     id 11 
     name lowerback
     direction -0.0188328 0.993434 -0.112847   
     length 2.27656   
     axis 0 0 0   XYZ
    dof rx ry rz
    limits (-20.0 45.0)
           (-30.0 30.0)
           (-30.0 30.0)
  end
  begin
     id 12 
     name upperback
     direction 0.00983139 0.998968 -0.04435   
     length 2.28631   
     axis 0 0 0   XYZ
    dof rx ry rz
    limits (-20.0 45.0)
           (-30.0 30.0)
           (-30.0 30.0)
  end
  begin
     id 13 
     name thorax
     direction 0.0177718 0.999807 0.00833073   
     length 2.30999   
     axis 0 0 0   XYZ
    dof rx ry rz
    limits (-20.0 45.0)
           (-30.0 30.0)
           (-30.0 30.0)
  end
  begin
     id 14 
     name lowerneck
     direction -0.0835025 0.993181 0.0813558   
     length 1.39447   
     axis 0 0 0   XYZ
    dof rx ry rz
    limits (-20.0 45.0)
           (-30.0 30.0)
           (-30.0 30.0)
  end
  begin
     id 15 
     name upperneck
     direction 0.210059 0.976535 0.0474817   
     length 1.39882   
     axis 0 0 0   XYZ
    dof rx ry rz
    limits (-20.0 45.0)
           (-30.0 30.0)
           (-30.0 30.0)
  end
  begin
     id 16
     name head
     direction 0.0780891 0.996944 -0.00207154  
     length 1.41828  
     axis 0 0 0   XYZ
    dof rx ry rz
    limits (-20.0 45.0)
           (-30.0 30.0)
           (-30.0 30.0)
  end
  begin
     id 17 
     name lclavicle
     direction 0.982414 0.166355 -0.0847829  
     length 3.57922  
     axis 0 0 0   XYZ
    dof ry rz
    limits (-20.0 10.0)
           (0.0 20.0)
  end
  begin
     id 18 
     name lhumerus
     direction 1 -4.48975e-011 5.47647e-028   
     length 4.76405   
     axis -180 -30 -90   XYZ
    dof rx ry rz
    limits (-60.0 90.0)
           (-90.0 90.0)
           (-90.0 90.0)
  end
  begin
     id 19
     name lradius
     direction 1 -4.48949e-011 -8.32142e-027   
     length 3.13759   
     axis -180 -30 -90   XYZ
    dof rx
    limits (-10.0 170.0)
  end
  begin
     id 20
     name lwrist
     direction 1 -4.48978e-011 -1.32705e-026   
     length 1.56879   
     axis 9.60836e-015 90 90   XYZ
    dof ry
    limits (-180.0 0.0)
 end
  begin
     id 21 
     name lhand
     direction 1 -4.48975e-011 -2.65409e-026   
     length 0.732262   
     axis 1.69354e-014 90 90   XYZ
    dof rx rz
    limits (-90.0 90.0)
           (-45.0 45.0)
  end
  begin
     id 22 
     name lfingers
     direction 1 -4.48923e-011 -5.30819e-026   
     length 0.590368   
     axis 3.38708e-014 90 90   XYZ
    dof rx
    limits (0.0 90.0)
  end
  begin
     id 23
     name lthumb
     direction 0.707107 -6.34914e-011 0.707107   
     length 0.847654   
     axis -90 45 2.85299e-015   XYZ
    dof rx rz
    limits (-45.0 45.0)
           (-45.0 45.0)
  end
  begin
     id 24 
     name rclavicle
     direction -0.963658 0.245183 -0.106063   
     length 3.43472  
     axis 0 0 0   XYZ 
    dof ry rz
    limits (-10.0 20.0)
           (-20.0 0.0)
  end
  begin
     id 25 
     name rhumerus
     direction -1 -4.48963e-011 -1.64784e-027  
     length 5.10161   
     axis -180 30 90   XYZ
    dof rx ry rz
    limits (-90.0 60.0)
           (-90.0 90.0)
           (-90.0 90.0)
  end
  begin
     id 26 
     name rradius
     direction -1 -4.48969e-011 -2.87943e-027   
     length 3.23267   
     axis -180 30 90   XYZ
    dof rx
    limits (-10.0 170.0)
  end
  begin
     id 27 
     name rwrist
     direction -1 -4.48982e-011 -1.32705e-026   
     length 1.61633   
     axis 9.60836e-015 -90 -90   XYZ
    dof ry
    limits (-180.0 0.0)
  end
  begin
     id 28
     name rhand
     direction -1 -4.48963e-011 -2.65409e-026   
     length 0.702   
     axis 1.69354e-014 -90 -90   XYZ
    dof rx rz
    limits (-90.0 90.0)
           (-45.0 45.0)
  end
  begin
     id 29
     name rfingers
     direction -1 -4.48934e-011 -5.30819e-026   
     length 0.565971   
     axis 3.38708e-014 -90 -90   XYZ
    dof rx
    limits (0.0 90.0)
  end
  begin
     id 30
     name rthumb
     direction -0.707107 -6.34908e-011 0.707107   
     length 0.812624   
     axis -90 -45 -2.85299e-015   XYZ
    dof rx rz
    limits (-45.0 45.0)
           (-45.0 45.0)
  end
:hierarchy
  begin
    root lhipjoint rhipjoint lowerback
    lhipjoint lfemur
    lfemur ltibia
    ltibia lfoot
    lfoot ltoes
    rhipjoint rfemur
    rfemur rtibia
    rtibia rfoot
    rfoot rtoes
    lowerback upperback
    upperback thorax
    thorax lowerneck lclavicle rclavicle
    lowerneck upperneck
    upperneck head
    lclavicle lhumerus
    lhumerus lradius
    lradius lwrist
    lwrist lhand lthumb
    lhand lfingers
    rclavicle rhumerus
    rhumerus rradius
    rradius rwrist
    rwrist rhand rthumb
    rhand rfingers
  end

#!OML:ASF \\sashay\E\basketball\basketball\Project 1\Capture day 1\Session 1\Subject.ASF
:FULLY-SPECIFIED
:DEGREES
17
root -15.1018 15.6984 0.30739 186.957 80.1962 178.408
lowerback 14.2951 0.439188 -3.12072
upperback 6.98994 0.586799 -1.72406
thorax -0.643183 0.431893 -0.12629
lowerneck -2.50749 -10.7366 -15.2073
upperneck -19.8382 -10.2711 30.278
head -2.30642 -5.35651 12.4919
rclavicle -6.75868e-015 -5.56597e-015
rhumerus -42.7451 4.19152 -99.4923
rradius 56.0462
rwrist -12.4282
rhand -34.71 44.9734
rfingers 7.12502
rthumb -7.86487 15.1396
lclavicle -6.75868e-015 -5.56597e-015
lhumerus -55.7744 -12.5737 103.714
lradius 90.2669
lwrist 16.8366
lhand -36.0158 32.2944
lfingers 7.12502
lthumb -9.12508 62.077
rfemur 5.45838 -22.0665 13.7672
rtibia 103.196
rfoot -2.18046 -9.19513
rtoes -19.5315
lfemur -32.4961 4.24909 -29.6031
ltibia 38.6157
lfoot -8.21077 -8.13942
ltoes 3.57008
18
root -14.5211 15.6121 0.299327 184.755 79.8833 176.025
lowerback 14.7241 0.00871881 -3.72871
upperback 6.88153 -0.0790956 -1.74
thorax -0.964949 0.0932788 0.293917
lowerneck -2.4323 -10.3832 -15.7538
upperneck -20.0452 -9.65091 30.9335
head -2.42039 -5.04637 12.9367
rclavicle 1.90833e-014 -3.97569e-014
rhumerus -43.9825 3.53747 -98.2613
rradius 51.8763
rwrist -10.3697
rhand -34.7456 43.3773
rfingers 7.12502
rthumb -7.89926 13.5449
lclavicle 1.90833e-014 -3.97569e-014
lhumerus -51.8079 -12.3631 104.536
lradius 90.7
lwrist 16.187
lhand -35.5346 35.4343
lfingers 7.12502
lthumb -8.66075 65.2366
rfemur 1.4194 -23.4112 11.6378
rtibia 109.434
rfoot -2.54662 -6.97306
rtoes -19.8037
lfemur -31.9921 2.68746 -29.5447
ltibia 41.4538
lfoot -10.8755 -5.10173
ltoes -0.543393
19
root -13.9682 15.4968 0.299536 180.962 79.5681 171.957
lowerback 14.8918 -0.322466 -4.54081
upperback 7.0048 -0.60642 -1.90788
thorax -0.890536 -0.176764 0.654345
lowerneck -2.55974 -10.2181 -15.9518
upperneck -20.5522 -9.21027 31.3856
head -2.58853 -4.82493 13.2305
rclavicle 3.06128e-014 1.11319e-014
rhumerus -45.134 3.08403 -97.1856
rradius 48.4913
rwrist -8.7046
rhand -35.7214 45.6598
rfingers 7.12502
rthumb -8.84101 15.865
lclavicle 3.06128e-014 1.11319e-014
lhumerus -47.5156 -13.0832 105.164
lradius 91.033
lwrist 15.4705
lhand -36.3056 35.9245
lfingers 7.12502
lthumb -9.40469 65.6947
rfemur -3.21847 -24.9354 9.18724
rtibia 115.555
rfoot -3.74572 -4.66769
rtoes -22.7477
lfemur -30.9281 1.18381 -29.8158
ltibia 43.6137
lfoot -13.7028 -3.82842
ltoes -1.35209
20
root -13.4067 15.3942 0.318093 172.958 79.3246 164.491
lowerback 15.6313 -0.429564 -6.24012
upperback 7.55428 -0.926165 -2.2105
thorax -0.634542 -0.349369 1.34001
lowerneck -3.13106 -10.2678 -15.9012
upperneck -20.9338 -9.0867 31.5261
head -2.61177 -4.72786 13.2812
rclavicle -2.5842e-014 -2.62396e-014
rhumerus -46.5609 3.07502 -96.3222
rradius 46.1756
rwrist -7.68514
rhand -36.1539 46.3123
rfingers 7.12502
rthumb -9.25832 16.5355
lclavicle -2.5842e-014 -2.62396e-014
lhumerus -43.0467 -14.3724 105.601
lradius 91.6476
lwrist 15.0069
lhand -36.7326 37.4793
lfingers 7.12502
lthumb -9.81665 67.2305
rfemur -6.63842 -26.288 5.35038
rtibia 120.83
rfoot -5.8421 -2.2119
rtoes -24.7645
lfemur -28.2905 0.398698 -30.7676
ltibia 44.674
lfoot -16.2987 -3.10685
ltoes -3.24889
21
root -12.8122 15.3471 0.332296 161.403 79.4651 153.069
lowerback 15.8046 -0.206464 -8.80387
upperback 7.91376 -0.919467 -2.55022
thorax -0.250439 -0.398914 2.40959
lowerneck -3.73837 -10.2423 -15.9883
upperneck -21.1081 -8.93572 31.4464
head -2.59108 -4.59472 13.2598
rclavicle 4.8901e-014 3.49861e-014
rhumerus -48.8336 3.93089 -95.7331
rradius 45.5578
rwrist -7.45876
rhand -37.2384 47.496
rfingers 7.12502
rthumb -10.3046 17.7684
lclavicle 4.8901e-014 3.49861e-014
lhumerus -38.6317 -15.4003 105.97
lradius 92.2049
lwrist 15.225
lhand -37.2273 36.8806
lfingers 7.12502
lthumb -10.2939 66.6087
rfemur -10.3051 -27.1301 0.73149
rtibia 125.108
rfoot -8.59581 0.36807
rtoes -25.1401
lfemur -25.2908 0.73975 -32.4169
ltibia 44.6221
lfoot -18.475 -2.92023
ltoes -4.81815
22
root -12.2045 15.334 0.329847 152.572 79.0605 144.655
lowerback 16.3212 -0.133708 -10.7027
upperback 8.13804 -1.08092 -2.76953
thorax -0.17691 -0.512742 3.25852
lowerneck -3.83103 -10.0365 -15.9381
upperneck -21.3883 -8.59722 31.0981
head -2.77715 -4.41116 13.1692
rclavicle -4.37326e-015 1.66979e-014
rhumerus -51.8459 5.28846 -95.5562
rradius 46.2797
rwrist -8.23981
rhand -37.8349 49.2193
rfingers 7.12502
rthumb -10.88 19.5211
lclavicle -4.37326e-015 1.66979e-014
lhumerus -34.4913 -16.4427 106.316
lradius 93.2729
lwrist 14.539
lhand -36.387 36.7467
lfingers 7.12502
lthumb -9.48326 66.5133
rfemur -13.72 -27.9969 -2.89247
rtibia 128.066
rfoot -10.8814 2.76556
rtoes -23.3352
lfemur -21.5528 1.59189 -33.6365
ltibia 43.6867
lfoot -20.1061 -3.40096
ltoes -5.74531
23
root -11.6052 15.3149 0.315877 149.04 79.54 141.345
lowerback 16.4871 -0.0888541 -11.0881
upperback 8.17292 -1.09147 -2.78007
thorax -0.205427 -0.52611 3.46384
lowerneck -3.60019 -9.7385 -15.7465
upperneck -21.6146 -8.19551 30.6472
head -3.04018 -4.22817 13.0324
rclavicle 3.97569e-015 -7.15625e-015
rhumerus -55.2982 6.94451 -95.9221
rradius 48.0229
rwrist -9.76667
rhand -37.8163 50.9532
rfingers 7.12502
rthumb -10.8621 21.2541
lclavicle 3.97569e-015 -7.15625e-015
lhumerus -30.94 -17.1363 106.35
lradius 94.0809
lwrist 13.148
lhand -35.777 34.9019
lfingers 7.12502
lthumb -8.89464 64.6945
rfemur -19.5506 -27.4312 -1.57798
rtibia 130.116
rfoot -11.2706 3.43702
rtoes -18.9851
lfemur -18.0787 2.8051 -33.4482
ltibia 42.2945
lfoot -21.1888 -3.66199
ltoes -7.72822
